<svg width="24" height="24" viewBox="0 0 24 24" fill="none" xmlns="http://www.w3.org/2000/svg">
<path fill-rule="evenodd" clip-rule="evenodd" d="M12.1299 2.07144C13.5003 1.50379 15.0083 1.35526 16.4632 1.64465C17.918 1.93404 19.2544 2.64835 20.3033 3.69724C21.3522 4.74613 22.0665 6.08251 22.3559 7.53737C22.6453 8.99222 22.4968 10.5002 21.9291 11.8707C21.3614 13.2411 20.4001 14.4125 19.1668 15.2366C17.9338 16.0604 16.4842 16.5003 15.0013 16.5005C14.2113 16.5033 13.4272 16.3786 12.679 16.1322L11.7803 17.0309C11.6397 17.1715 11.4489 17.2505 11.25 17.2505H9.75V18.7505C9.75 19.1648 9.41421 19.5005 9 19.5005H7.5V21.0005C7.5 21.4148 7.16421 21.7505 6.75 21.7505H3C2.58579 21.7505 2.25 21.4148 2.25 21.0005V17.2505C2.25 17.0516 2.32902 16.8609 2.46967 16.7202L7.86834 11.3215C7.6219 10.5733 7.49718 9.78913 7.5 8.99913C7.50028 7.51626 7.94013 6.06674 8.76398 4.83377C9.58809 3.6004 10.7594 2.6391 12.1299 2.07144ZM18 7.50054C18 8.32897 17.3284 9.00054 16.5 9.00054C15.6716 9.00054 15 8.32897 15 7.50054C15 6.67211 15.6716 6.00054 16.5 6.00054C17.3284 6.00054 18 6.67211 18 7.50054Z" fill="#5AA423"/>
</svg>
