<svg width="24" height="24" viewBox="0 0 24 24" fill="none" xmlns="http://www.w3.org/2000/svg">
<path fill-rule="evenodd" clip-rule="evenodd" d="M6.25 19.75V20.2936C6.25 20.687 6.41111 21.0598 6.69046 21.3311C6.96907 21.6017 7.34241 21.75 7.72727 21.75H12.2727C12.6576 21.75 13.0309 21.6017 13.3095 21.3311C13.5889 21.0598 13.75 20.687 13.75 20.2936V14.75H16.25V20.2936C16.25 20.687 16.4111 21.0598 16.6905 21.3311C16.9691 21.6017 17.3424 21.75 17.7273 21.75H22.2727C22.6576 21.75 23.0309 21.6017 23.3095 21.3311C23.5889 21.0597 23.75 20.687 23.75 20.2936V10.1257L23.7499 10.1132C23.7465 9.91228 23.7018 9.71465 23.619 9.53214C23.5362 9.34969 23.4174 9.18668 23.2706 9.05204L23.26 9.04244L15.9891 2.62458L15.988 2.62358C15.7148 2.38133 15.3622 2.25 15 2.25C14.6378 2.25 14.2852 2.38134 14.012 2.62358L14.0109 2.62458L10.6388 5.60104L8.51529 3.60411C8.50882 3.59803 8.50225 3.59206 8.49557 3.58622C8.24534 3.36712 7.92436 3.25 7.5967 3.25C7.26955 3.25 6.94904 3.36676 6.69898 3.58522L6.69784 3.58622L0.702711 8.80043L0.691985 8.80995C0.557659 8.93136 0.4481 9.07909 0.371497 9.24546C0.294851 9.41192 0.253222 9.59273 0.250107 9.77696L0.25 9.78963V18.426C0.25 18.7881 0.400565 19.1282 0.657074 19.3737C0.912463 19.6181 1.25209 19.75 1.5997 19.75H6.25ZM7.75 10.1517L15 3.75227L22.25 10.1517V20.25H17.75V14.7064C17.75 14.313 17.5889 13.9403 17.3095 13.6689C17.0309 13.3983 16.6576 13.25 16.2727 13.25H13.7273C13.3424 13.25 12.9691 13.3983 12.6905 13.6689C12.4111 13.9402 12.25 14.313 12.25 14.7064V20.25H7.75V10.1517ZM6.25 18.25V10.1132C6.25335 9.91228 6.29818 9.71465 6.38098 9.53214C6.46375 9.34969 6.5826 9.18668 6.72937 9.05204L6.74004 9.04244L9.50939 6.59798L7.59286 4.79574L1.75 9.87753V18.25H6.25Z" fill="#859096"/>
</svg>
