<svg width="24" height="24" viewBox="0 0 24 24" fill="none" xmlns="http://www.w3.org/2000/svg">
<path fill-rule="evenodd" clip-rule="evenodd" d="M14.012 2.62358C14.2852 2.38134 14.6378 2.25 15 2.25C15.3622 2.25 15.7148 2.38133 15.988 2.62358L15.9891 2.62458L23.26 9.04244L23.2706 9.05204C23.4174 9.18668 23.5362 9.34969 23.619 9.53214C23.7018 9.71465 23.7465 9.91228 23.7499 10.1132L23.7501 10.1257L23.75 20.2936C23.75 20.687 23.5889 21.0597 23.3095 21.3311C23.0309 21.6017 22.6576 21.75 22.2727 21.75H17.7273C17.3424 21.75 16.9691 21.6017 16.6905 21.3311C16.4111 21.0598 16.25 20.687 16.25 20.2936V14.75H13.75V20.2936C13.75 20.687 13.5889 21.0598 13.3095 21.3311C13.0309 21.6017 12.6576 21.75 12.2727 21.75H7.72727C7.34241 21.75 6.96907 21.6017 6.69046 21.3311C6.41111 21.0598 6.25 20.687 6.25 20.2936V19.75H1.5997C1.25209 19.75 0.912463 19.6181 0.657074 19.3737C0.400565 19.1282 0.25 18.7881 0.25 18.426L0.250107 9.77696C0.253222 9.59273 0.294851 9.41192 0.371497 9.24546C0.4481 9.07909 0.557659 8.93136 0.691985 8.80995L0.702711 8.80043L6.69784 3.58622L6.69898 3.58522C6.94904 3.36676 7.26955 3.25 7.5967 3.25C7.92436 3.25 8.24534 3.36712 8.49557 3.58622C8.50225 3.59206 8.50882 3.59803 8.51529 3.60411L10.6388 5.60104L14.0109 2.62458L14.012 2.62358ZM9.50939 6.59798L7.59286 4.79574L1.75 9.87753V18.25H6.25V10.1132C6.25335 9.91228 6.29818 9.71465 6.38098 9.53214C6.46375 9.34969 6.5826 9.18668 6.72937 9.05204L6.74004 9.04244L9.50939 6.59798Z" fill="#5AA423"/>
</svg>
