<svg width="24" height="24" viewBox="0 0 24 24" fill="none" xmlns="http://www.w3.org/2000/svg">
<path fill-rule="evenodd" clip-rule="evenodd" d="M9 2.25C8.0335 2.25 7.25 3.0335 7.25 4V6.25H4C2.48122 6.25 1.25 7.48122 1.25 9V19C1.25 20.5188 2.48122 21.75 4 21.75H20C21.5188 21.75 22.75 20.5188 22.75 19V9C22.75 7.48122 21.5188 6.25 20 6.25H16.75V4C16.75 3.0335 15.9665 2.25 15 2.25H9ZM15.25 6.25V4C15.25 3.86193 15.1381 3.75 15 3.75H9C8.86193 3.75 8.75 3.86193 8.75 4V6.25H15.25ZM2.75 9C2.75 8.30964 3.30964 7.75 4 7.75H4.5V20.25H4C3.30964 20.25 2.75 19.6904 2.75 19V9ZM6 20.25H18V7.75H6V20.25ZM20 20.25H19.5V7.75H20C20.6904 7.75 21.25 8.30964 21.25 9V19C21.25 19.6904 20.6904 20.25 20 20.25Z" fill="#859096"/>
</svg>
