<svg width="24" height="24" viewBox="0 0 24 24" fill="none" xmlns="http://www.w3.org/2000/svg">
<path d="M12 13C12.5523 13 13 12.5523 13 12C13 11.4477 12.5523 11 12 11C11.4477 11 11 11.4477 11 12C11 12.5523 11.4477 13 12 13Z" fill="#5AA423"/>
<path fill-rule="evenodd" clip-rule="evenodd" d="M12 0.25C5.51065 0.25 0.25 5.51065 0.25 12C0.25 18.4893 5.51065 23.75 12 23.75C18.4893 23.75 23.75 18.4893 23.75 12C23.75 5.51065 18.4893 0.25 12 0.25ZM17.6986 8.27669L17.7236 8.20146C17.8384 7.85717 17.9416 7.54763 17.9967 7.30923C18.025 7.18651 18.0536 7.03056 18.0487 6.86982C18.0438 6.7089 18.0015 6.44058 17.7806 6.21963C17.5596 5.99868 17.2913 5.95635 17.1304 5.95147C16.9696 5.9466 16.8137 5.97522 16.691 6.00354C16.4526 6.05855 16.143 6.16175 15.7988 6.27654L15.7235 6.30163L9.954 8.96743L9.95243 8.96815C9.51706 9.16761 9.16784 9.51683 8.96838 9.9522L8.96765 9.95378L6.30184 15.7232L6.27671 15.7986C6.16195 16.1428 6.05878 16.4523 6.00378 16.6907C5.97546 16.8134 5.94685 16.9694 5.95172 17.1301C5.95659 17.291 5.99891 17.5593 6.21985 17.7803C6.4408 18.0012 6.70913 18.0436 6.87005 18.0484C7.03079 18.0533 7.18674 18.0247 7.30946 17.9964C7.54784 17.9414 7.85736 17.8382 8.20161 17.7234L8.27688 17.6983L14.0464 15.0325L14.0478 15.0319C14.4832 14.8324 14.8326 14.4831 15.032 14.0477L15.0327 14.0462L17.6986 8.27669Z" fill="#5AA423"/>
</svg>
