<svg width="24" height="24" viewBox="0 0 24 24" fill="none" xmlns="http://www.w3.org/2000/svg">
<path d="M12 13C12.5523 13 13 12.5523 13 12C13 11.4477 12.5523 11 12 11C11.4477 11 11 11.4477 11 12C11 12.5523 11.4477 13 12 13Z" fill="#859096"/>
<path fill-rule="evenodd" clip-rule="evenodd" d="M17.7255 8.20143L17.7005 8.27669L15.0347 14.0462L15.0339 14.0478C14.8345 14.4831 14.4852 14.8324 14.0498 15.0318L14.0483 15.0325L8.27883 17.6983L8.20347 17.7234C7.85925 17.8382 7.54976 17.9414 7.3114 17.9964C7.18869 18.0247 7.03273 18.0533 6.87199 18.0484C6.71107 18.0436 6.44274 18.0012 6.22179 17.7803C6.00085 17.5593 5.95854 17.291 5.95367 17.1301C5.9488 16.9693 5.97742 16.8134 6.00574 16.6907C6.06075 16.4523 6.16392 16.1429 6.27867 15.7987L6.30382 15.7232L8.9696 9.95378L8.97033 9.95219C9.16979 9.51682 9.51902 9.1676 9.95439 8.96814L9.95595 8.96743L15.7254 6.30163L15.8007 6.27654C16.145 6.16175 16.4545 6.05855 16.6929 6.00354C16.8156 5.97522 16.9716 5.9466 17.1323 5.95147C17.2932 5.95635 17.5616 5.99867 17.7825 6.21963C18.0035 6.44059 18.0458 6.70892 18.0507 6.86984C18.0555 7.03058 18.0269 7.18654 17.9986 7.30925C17.9436 7.54765 17.8403 7.85717 17.7255 8.20143ZM16.2788 7.69829L10.5795 10.3317C10.4708 10.3814 10.3835 10.4686 10.3338 10.5774L10.3326 10.5802L7.70048 16.2767L7.68802 16.3141L7.72538 16.3016L13.4247 13.6683C13.5335 13.6186 13.6207 13.5313 13.6704 13.4226L13.6717 13.4198L16.3038 7.72322L16.3163 7.68582L16.2788 7.69829Z" fill="#859096"/>
<path fill-rule="evenodd" clip-rule="evenodd" d="M0.25 12C0.25 5.51065 5.51065 0.25 12 0.25C18.4893 0.25 23.75 5.51065 23.75 12C23.75 18.4893 18.4893 23.75 12 23.75C5.51065 23.75 0.25 18.4893 0.25 12ZM12 1.75C6.33908 1.75 1.75 6.33908 1.75 12C1.75 17.6609 6.33908 22.25 12 22.25C17.6609 22.25 22.25 17.6609 22.25 12C22.25 6.33908 17.6609 1.75 12 1.75Z" fill="#859096"/>
</svg>
