<svg width="24" height="24" viewBox="0 0 24 24" fill="none" xmlns="http://www.w3.org/2000/svg">
<path fill-rule="evenodd" clip-rule="evenodd" d="M16.1705 3.11583C15.0067 2.88431 13.8003 3.00313 12.7039 3.45726C11.6075 3.91139 10.6705 4.68042 10.0112 5.66712C9.35189 6.65381 9 7.81385 9 9.00054V9.00336H8.99999C8.99713 9.76665 9.1439 10.5231 9.43202 11.2299C9.54594 11.5094 9.48124 11.83 9.26783 12.0434L3.75 17.5612V20.2505H6V18.7505C6 18.3363 6.33579 18.0005 6.75 18.0005H8.25V16.5005C8.25 16.0863 8.58579 15.7505 9 15.7505H10.9393L11.9572 14.7327C12.1706 14.5193 12.4911 14.4546 12.7706 14.5685C13.4774 14.8566 14.2339 15.0034 14.9972 15.0005L15 15.0005C16.1867 15.0005 17.3467 14.6486 18.3334 13.9894C19.3201 13.3301 20.0892 12.393 20.5433 11.2966C20.9974 10.2003 21.1162 8.99388 20.8847 7.83C20.6532 6.66611 20.0818 5.59701 19.2426 4.7579C18.4035 3.91878 17.3344 3.34734 16.1705 3.11583ZM12.1299 2.07144C13.5003 1.50378 15.0083 1.35526 16.4632 1.64465C17.918 1.93404 19.2544 2.64834 20.3033 3.69724C21.3522 4.74613 22.0665 6.0825 22.3559 7.53736C22.6453 8.99222 22.4968 10.5002 21.9291 11.8707C21.3614 13.2411 20.4001 14.4125 19.1668 15.2366C17.9338 16.0604 16.4842 16.5003 15.0013 16.5005C14.2113 16.5033 13.4272 16.3786 12.679 16.1322L11.7803 17.0309C11.6397 17.1715 11.4489 17.2505 11.25 17.2505H9.75V18.7505C9.75 19.1648 9.41421 19.5005 9 19.5005H7.5V21.0005C7.5 21.4148 7.16421 21.7505 6.75 21.7505H3C2.58579 21.7505 2.25 21.4148 2.25 21.0005V17.2505C2.25 17.0516 2.32902 16.8609 2.46967 16.7202L7.86834 11.3215C7.6219 10.5733 7.49718 9.78912 7.5 8.99913C7.50028 7.51626 7.94013 6.06674 8.76398 4.83376C9.58809 3.60039 10.7594 2.6391 12.1299 2.07144Z" fill="#008BB2"/>
<path d="M16.5 9.00054C17.3284 9.00054 18 8.32896 18 7.50054C18 6.67211 17.3284 6.00054 16.5 6.00054C15.6716 6.00054 15 6.67211 15 7.50054C15 8.32896 15.6716 9.00054 16.5 9.00054Z" fill="#008BB2"/>
</svg>
