<svg width="24" height="24" viewBox="0 0 24 24" fill="none" xmlns="http://www.w3.org/2000/svg">
<path fill-rule="evenodd" clip-rule="evenodd" d="M9 2.25C8.0335 2.25 7.25 3.0335 7.25 4V6.25H6V21.75H18V6.25H16.75V4C16.75 3.0335 15.9665 2.25 15 2.25H9ZM15.25 6.25V4C15.25 3.86193 15.1381 3.75 15 3.75H9C8.86193 3.75 8.75 3.86193 8.75 4V6.25H15.25Z" fill="#5AA423"/>
<path d="M19.5 6.25V21.75H20C21.5188 21.75 22.75 20.5188 22.75 19V9C22.75 7.48122 21.5188 6.25 20 6.25H19.5Z" fill="#5AA423"/>
<path d="M4 6.25H4.5V21.75H4C2.48122 21.75 1.25 20.5188 1.25 19V9C1.25 7.48122 2.48122 6.25 4 6.25Z" fill="#5AA423"/>
</svg>
